<?xml version="1.0" encoding="utf-8"?>
<!-- Generator: Adobe Illustrator 16.0.0, SVG Export Plug-In . SVG Version: 6.00 Build 0)  -->
<!DOCTYPE svg PUBLIC "-//W3C//DTD SVG 1.1//EN" "http://www.w3.org/Graphics/SVG/1.1/DTD/svg11.dtd">
<svg version="1.1" xmlns="http://www.w3.org/2000/svg" xmlns:xlink="http://www.w3.org/1999/xlink" x="0px" y="0px" width="60px"
	 height="60px" viewBox="0 0 60 60" enable-background="new 0 0 60 60" xml:space="preserve">
<g id="Layer_1">
	<g>
		<circle opacity="0.15" fill-rule="evenodd" clip-rule="evenodd" cx="30" cy="30" r="24"/>
		<path opacity="0.1" fill-rule="evenodd" clip-rule="evenodd" fill="#FFFFFF" d="M30,2C14.536,2,2,14.536,2,30s12.536,28,28,28
			s28-12.536,28-28S45.464,2,30,2z M30,54C16.745,54,6,43.255,6,30S16.745,6,30,6s24,10.745,24,24S43.255,54,30,54z"/>
		<g>
			<path fill="#FFFFFF" d="M19.444,26.859c0-0.703,0.263-1.405,0.789-1.941c1.052-1.072,2.757-1.072,3.81,0L30.5,31.5l6.326-6.564
				c1.042-1.082,2.747-1.097,3.809-0.036c1.062,1.065,1.075,2.802,0.035,3.882l-8.229,8.541c-0.504,0.523-1.191,0.819-1.91,0.822
				c-0.719,0.004-1.409-0.286-1.917-0.804l-8.38-8.542C19.707,28.264,19.444,27.562,19.444,26.859z"/>
		</g>
	</g>
</g>
<g id="Layer_2" display="none">
	<g display="inline">
		<circle opacity="0.4" fill-rule="evenodd" clip-rule="evenodd" cx="30" cy="30" r="24"/>
		<path opacity="0.4" fill-rule="evenodd" clip-rule="evenodd" fill="#FFFFFF" d="M30,2C14.536,2,2,14.536,2,30s12.536,28,28,28
			s28-12.536,28-28S45.464,2,30,2z M30,54C16.745,54,6,43.255,6,30S16.745,6,30,6s24,10.745,24,24S43.255,54,30,54z"/>
		<g>
			<path fill="#FFFFFF" d="M19.444,26.859c0-0.703,0.263-1.405,0.789-1.941c1.052-1.072,2.757-1.072,3.81,0L30.5,31.5l6.326-6.564
				c1.042-1.082,2.747-1.097,3.809-0.036c1.062,1.065,1.075,2.802,0.035,3.882l-8.229,8.541c-0.504,0.523-1.191,0.819-1.91,0.822
				c-0.719,0.004-1.409-0.286-1.917-0.804l-8.38-8.542C19.707,28.264,19.444,27.562,19.444,26.859z"/>
		</g>
	</g>
</g>
</svg>
